<svg version="1.1" id="Layer_1" xmlns="http://www.w3.org/2000/svg" xmlns:xlink="http://www.w3.org/1999/xlink" x="0px" y="0px"
	 width="100%" viewBox="0 0 256 256" enable-background="new 0 0 256 256" xml:space="preserve">
<path fill="#000000" opacity="1.000000" stroke="none" 
	d="
M257.000000,224.000000 
	C257.000000,234.985031 257.000000,245.970078 257.000000,256.950989 
	C171.666656,256.946869 86.333313,256.946869 1.000000,256.946869 
	C1.000000,246.241592 1.000000,235.589462 1.401460,224.607819 
	C12.185867,224.511719 22.568287,224.780380 32.952400,224.935776 
	C34.313679,224.956161 35.683640,224.396286 37.415001,223.915848 
	C38.187141,222.045761 38.940968,220.366379 38.947727,218.683990 
	C39.029316,198.381851 39.000519,178.079254 39.000484,157.776779 
	C39.000481,156.015533 39.000484,154.254303 39.000484,152.493057 
	C39.345829,152.488724 39.691174,152.484406 40.036518,152.480072 
	C40.095341,153.654678 40.154163,154.829269 40.121605,156.463989 
	C40.030228,178.672821 40.030228,200.421555 40.030228,222.170303 
	C40.353771,222.170578 40.677315,222.170853 41.000858,222.171143 
	C41.000858,220.551880 41.000862,218.932632 41.000862,217.313370 
	C41.000866,198.845154 40.975262,180.376846 41.043739,161.908875 
	C41.050014,160.215622 41.657658,158.524597 42.411770,156.911224 
	C46.638893,156.317093 51.584087,159.393219 53.983547,154.303238 
	C55.385395,151.329483 55.644283,147.816925 56.395172,144.571289 
	C56.372971,144.595795 56.330391,144.646393 56.637905,144.805756 
	C59.516171,147.047470 62.086922,149.129822 65.049469,151.529556 
	C64.842216,149.926224 64.696259,148.442291 64.450775,146.974991 
	C63.997486,144.265579 62.616081,141.363312 63.188507,138.906540 
	C64.222694,134.467941 66.409721,130.297958 68.437317,126.136551 
	C70.185501,128.181961 71.982979,129.940384 72.938919,132.075577 
	C74.006210,134.459503 75.030403,137.259384 74.775620,139.745224 
	C74.397018,143.439087 72.878441,147.016098 71.640778,151.359756 
	C75.335030,148.883240 78.138130,147.004120 80.970963,145.343353 
	C81.000687,145.561707 81.153351,145.974930 81.086197,146.390442 
	C81.647697,149.218048 82.276352,151.630142 83.065948,154.389572 
	C85.907928,155.491150 88.548126,156.491760 91.279144,156.944382 
	C95.871872,157.705566 97.900688,154.365143 98.820969,150.854263 
	C99.719574,147.426086 97.798065,144.961426 94.734528,142.820023 
	C91.104042,140.282303 87.688721,141.339462 84.183693,141.566101 
	C90.412575,137.246490 95.429443,138.353683 101.903847,144.879883 
	C102.155312,142.531433 102.551971,139.642090 101.303215,138.017517 
	C96.529274,131.806885 91.225937,126.003197 86.499405,120.014366 
	C88.304245,117.317123 89.729958,114.653084 91.458328,112.116882 
	C97.597862,117.518402 102.004700,124.549530 110.386353,127.184959 
	C112.300797,128.190323 113.870438,129.130234 116.077065,130.451553 
	C115.647720,127.799294 115.348938,125.953560 115.367416,124.059822 
	C116.109634,124.047417 116.534576,124.083023 117.106415,124.440552 
	C120.246666,124.801094 123.477867,125.550911 126.158546,124.654472 
	C128.323151,123.930611 131.251572,122.821823 131.140839,118.908020 
	C130.950851,112.193092 124.858505,107.633171 118.358917,109.851845 
	C117.036842,110.303146 115.587036,110.380272 114.429955,110.587929 
	C115.708939,108.310997 116.884621,106.217972 118.417114,104.055069 
	C120.656532,102.765121 122.539154,101.545059 124.946426,99.984978 
	C118.415283,100.368690 112.938126,101.293282 107.602501,100.771210 
	C104.546021,100.472145 101.719551,97.822243 98.924240,95.864494 
	C102.377388,93.613907 105.695816,91.729530 109.280853,89.878235 
	C109.740631,89.622292 109.933800,89.333260 110.530418,89.026321 
	C115.090775,89.989731 119.247681,90.971054 124.008194,92.094864 
	C121.181442,88.749794 118.737442,85.857658 116.609467,82.793533 
	C118.294670,82.592758 119.694344,82.366409 121.027290,82.572205 
	C125.021606,83.188911 129.502151,80.507591 130.781143,76.571655 
	C131.969940,72.913277 129.888962,68.379631 125.554810,67.435501 
	C122.243393,66.714165 118.566559,67.670242 115.028900,67.486710 
	C115.366470,65.152138 115.727409,63.211014 116.321304,60.017021 
	C112.492668,62.543270 109.746895,64.355011 106.659607,66.191963 
	C103.189171,69.787941 97.196365,70.290161 95.663071,76.008194 
	C94.617966,76.399910 93.867653,76.669846 92.911270,76.603622 
	C89.080956,75.178032 85.456711,74.088585 82.004623,72.680733 
	C89.587090,69.808975 93.805214,63.626659 98.351967,57.901890 
	C99.880989,55.976707 98.631271,51.884090 102.938911,52.106842 
	C102.938911,50.752518 102.938911,49.398193 102.938911,48.441990 
	C100.470604,48.299519 98.759987,48.200783 97.383041,47.932861 
	C98.096275,46.174583 98.475838,44.585484 98.921661,42.636242 
	C98.219406,36.634357 92.275177,33.038174 86.530716,34.969124 
	C82.462097,37.089798 80.004074,39.846634 80.967682,44.544289 
	C81.197052,45.662479 81.054916,46.856873 80.924850,47.646828 
	C78.006287,45.010948 75.246536,42.744453 72.063965,40.130711 
	C72.168571,41.646324 71.822418,43.368980 72.447121,44.598251 
	C76.789505,53.143013 75.713951,58.618027 68.009674,64.692093 
	C60.215103,57.226570 60.834114,48.937988 64.362137,40.035961 
	C61.309902,42.916164 58.257664,45.796364 55.205425,48.676567 
	C54.785748,48.325840 54.366066,47.975117 53.946384,47.624390 
	C54.222466,46.594261 54.540043,45.573193 54.767403,44.532421 
	C55.726658,40.141254 55.327869,35.986267 50.084759,35.187485 
	C46.830273,34.691662 43.332920,35.790012 39.552784,36.093399 
	C36.917305,35.342525 34.684189,34.135662 32.428123,34.091129 
	C21.955564,33.884403 11.476644,33.999870 1.000000,34.000000 
	C1.000000,23.014961 1.000000,12.029922 1.000005,1.049003 
	C86.333351,1.053123 171.666687,1.053123 257.000000,1.053123 
	C257.000000,11.758391 257.000000,22.410538 256.583527,33.782009 
	C255.700974,34.348938 255.235123,34.064072 254.768768,34.063217 
	C235.009048,34.026978 215.249130,33.981865 195.490005,34.085770 
	C194.286514,34.092102 193.089340,35.304989 191.533356,36.203270 
	C191.125580,44.923378 191.187241,53.399658 190.966751,61.868587 
	C190.876724,65.325935 192.432327,66.075417 195.489166,66.022331 
	C202.633270,65.898285 209.781631,66.019661 216.967224,66.506256 
	C217.006195,118.626999 217.006195,170.283127 217.006195,221.939255 
	C217.980789,220.138107 217.979843,218.334656 217.980927,216.531204 
	C218.011215,166.368057 218.041702,116.204903 218.296219,66.025208 
	C218.520279,66.008667 218.961807,66.092117 218.977936,66.554749 
	C218.995956,117.343422 218.974991,167.669495 219.082352,217.995300 
	C219.086700,220.035767 220.302246,222.073654 221.201447,224.467896 
	C232.063110,224.875336 242.676895,224.960220 253.290405,224.935913 
	C254.527649,224.933075 255.763504,224.326614 257.000000,224.000000 
M188.980881,43.655067 
	C188.980881,50.496834 188.980881,57.338600 188.980881,64.180367 
	C189.227951,64.174713 189.475006,64.169060 189.722076,64.163406 
	C189.722076,55.068172 189.722076,45.972942 189.722076,36.877716 
	C189.475006,36.872559 189.227951,36.867401 188.980881,36.862247 
	C188.980881,38.811970 188.980881,40.761696 188.980881,43.655067 
z"/>
<path fill="#01AAEE" opacity="1.000000" stroke="none" 
	d="
M68.115334,126.015800 
	C66.409721,130.297958 64.222694,134.467941 63.188507,138.906540 
	C62.616081,141.363312 63.997486,144.265579 64.450775,146.974991 
	C64.696259,148.442291 64.842216,149.926224 65.049469,151.529556 
	C62.086922,149.129822 59.516171,147.047470 56.367950,144.619873 
	C55.212772,144.498657 54.635059,144.722702 54.057346,144.946747 
	C54.199612,145.204590 54.341873,145.462448 54.484138,145.720306 
	C55.128548,145.329132 55.772957,144.937943 56.417370,144.546768 
	C55.644283,147.816925 55.385395,151.329483 53.983547,154.303238 
	C51.584087,159.393219 46.638893,156.317093 42.228294,156.740082 
	C41.150398,156.328125 40.681694,156.166000 40.212986,156.003876 
	C40.154163,154.829269 40.095341,153.654678 40.036518,152.480072 
	C39.691174,152.484406 39.345829,152.488724 39.000484,152.493057 
	C39.000484,154.254303 39.000481,156.015533 39.000484,157.776779 
	C39.000519,178.079254 39.029316,198.381851 38.947727,218.683990 
	C38.940968,220.366379 38.187141,222.045761 37.073822,223.672607 
	C34.568508,223.410660 32.770748,223.033020 30.970901,223.022766 
	C20.980881,222.965866 10.990354,222.998215 1.000000,223.000000 
	C1.000000,160.312439 1.000000,97.624878 1.000000,34.468658 
	C11.476644,33.999870 21.955564,33.884403 32.428123,34.091129 
	C34.684189,34.135662 36.917305,35.342525 39.562027,36.500214 
	C39.816959,40.051601 39.609577,43.115707 39.557209,46.182457 
	C39.538280,47.291073 40.456871,48.897720 39.985023,49.440910 
	C35.931561,54.107262 39.354103,58.033161 40.798508,62.518597 
	C39.658447,68.963524 38.186161,75.176018 45.041245,79.470390 
	C45.456528,80.519768 45.828949,81.259521 46.132050,82.358887 
	C45.634315,84.104103 45.205914,85.489700 44.515873,87.090576 
	C42.816433,89.836037 41.378632,92.366226 39.646767,95.154976 
	C39.041489,102.002838 38.730270,108.592148 38.489182,115.516846 
	C39.002625,116.348808 39.445938,116.845398 39.935867,117.776871 
	C39.982491,121.939384 39.982491,125.667000 39.982491,130.633759 
	C45.769241,125.821945 50.379917,121.988068 55.351341,118.145134 
	C59.846504,120.762650 63.980919,123.389221 68.115334,126.015800 
z"/>
<path fill="#01A9EE" opacity="1.000000" stroke="none" 
	d="
M220.953476,224.112732 
	C220.302246,222.073654 219.086700,220.035767 219.082352,217.995300 
	C218.974991,167.669495 218.995956,117.343422 219.030334,66.246689 
	C218.027298,64.982849 217.004181,64.109306 215.945816,64.064293 
	C211.960358,63.894779 207.963074,64.027794 203.970810,63.988125 
	C191.544312,63.864670 193.233246,65.498642 192.963394,53.167492 
	C192.837738,47.425404 192.261322,41.693180 191.889236,35.956482 
	C193.089340,35.304989 194.286514,34.092102 195.490005,34.085770 
	C215.249130,33.981865 235.009048,34.026978 254.768768,34.063217 
	C255.235123,34.064072 255.700974,34.348938 256.583527,34.250668 
	C257.000000,96.687561 257.000000,159.375122 256.531342,222.529968 
	C246.266159,222.996292 236.468964,222.936569 226.673660,223.044907 
	C224.763229,223.066025 222.860016,223.739929 220.953476,224.112732 
z"/>
<path fill="#01B0F6" opacity="1.000000" stroke="none" 
	d="
M221.201447,224.467896 
	C222.860016,223.739929 224.763229,223.066025 226.673660,223.044907 
	C236.468964,222.936569 246.266159,222.996292 256.531342,222.998627 
	C257.000000,223.000000 257.000000,223.500000 257.000000,223.750000 
	C255.763504,224.326614 254.527649,224.933075 253.290405,224.935913 
	C242.676895,224.960220 232.063110,224.875336 221.201447,224.467896 
z"/>
<path fill="#01B0F6" opacity="1.000000" stroke="none" 
	d="
M1.000000,223.250000 
	C10.990354,222.998215 20.980881,222.965866 30.970901,223.022766 
	C32.770748,223.033020 34.568508,223.410660 36.708405,223.861908 
	C35.683640,224.396286 34.313679,224.956161 32.952400,224.935776 
	C22.568287,224.780380 12.185867,224.511719 1.401460,224.139160 
	C1.000000,224.000000 1.000000,223.500000 1.000000,223.250000 
z"/>
<path fill="#6878FE" opacity="1.000000" stroke="none" 
	d="
M38.419052,115.181458 
	C38.730270,108.592148 39.041489,102.002838 39.887897,95.335388 
	C44.652260,93.906281 46.306381,91.217575 44.777512,86.875305 
	C45.205914,85.489700 45.634315,84.104103 46.521564,82.360794 
	C49.028332,82.316536 51.076256,82.629997 53.451786,83.123466 
	C53.797493,84.534912 53.815590,85.766342 53.549225,87.020950 
	C52.787663,87.348358 52.310570,87.652588 51.833473,87.956810 
	C52.262436,88.324600 52.691395,88.692390 53.069103,89.469742 
	C52.619171,92.251930 52.220490,94.624550 51.469913,97.024261 
	C49.868023,98.117310 48.618031,99.183273 47.368038,100.249245 
	C48.190655,100.832420 49.013268,101.415588 49.768486,102.359650 
	C48.139183,105.701767 46.577278,108.683006 44.316868,112.997482 
	C47.961422,112.793060 50.451542,112.566177 52.944180,112.533997 
	C56.696491,112.485527 60.450745,112.558601 64.203842,112.606125 
	C71.928757,112.703926 78.468010,116.153168 85.189865,119.977554 
	C85.706749,120.016441 85.913506,120.032005 86.120262,120.047569 
	C91.225937,126.003197 96.529274,131.806885 101.303215,138.017517 
	C102.551971,139.642090 102.155312,142.531433 101.903847,144.879883 
	C95.429443,138.353683 90.412575,137.246490 84.132439,141.625580 
	C83.972832,142.039597 83.868477,142.156937 83.548660,142.199493 
	C82.466309,143.203018 81.703773,144.164001 80.941238,145.125000 
	C78.138130,147.004120 75.335030,148.883240 71.640778,151.359756 
	C72.878441,147.016098 74.397018,143.439087 74.775620,139.745224 
	C75.030403,137.259384 74.006210,134.459503 72.938919,132.075577 
	C71.982979,129.940384 70.185501,128.181961 68.437317,126.136551 
	C63.980919,123.389221 59.846504,120.762650 54.958946,118.063828 
	C50.338551,116.712845 46.471291,115.434120 41.640377,113.836754 
	C42.668934,113.254616 42.266434,113.344299 42.160545,113.571953 
	C41.958344,114.006668 41.925133,114.519997 41.398258,115.008720 
	C40.122841,115.071655 39.270947,115.126556 38.419052,115.181458 
z"/>
<path fill="#6878FF" opacity="1.000000" stroke="none" 
	d="
M40.974537,62.149490 
	C39.354103,58.033161 35.931561,54.107262 39.985023,49.440910 
	C40.456871,48.897720 39.538280,47.291073 39.557209,46.182457 
	C39.609577,43.115707 39.816959,40.051601 39.953819,36.579636 
	C43.332920,35.790012 46.830273,34.691662 50.084759,35.187485 
	C55.327869,35.986267 55.726658,40.141254 54.767403,44.532421 
	C54.540043,45.573193 54.222466,46.594261 53.946384,47.624390 
	C54.366066,47.975117 54.785748,48.325840 55.205425,48.676567 
	C58.257664,45.796364 61.309902,42.916164 64.362137,40.035961 
	C60.834114,48.937988 60.215103,57.226570 68.113342,65.002823 
	C71.765587,70.081131 76.383659,72.300163 81.832458,72.999138 
	C85.456711,74.088585 89.080956,75.178032 92.688049,76.868561 
	C92.430191,78.351341 92.189491,79.233040 91.571640,79.916954 
	C89.115784,79.479225 87.042824,79.148438 84.957291,79.016533 
	C78.904030,78.633675 72.655540,79.135979 66.844322,77.763680 
	C61.325409,76.460403 56.261940,73.228485 50.798420,70.681793 
	C50.117855,70.346695 49.637070,70.174438 49.017715,69.691193 
	C46.244274,66.969963 43.609406,64.559731 40.974537,62.149490 
z"/>
<path fill="#01AAED" opacity="1.000000" stroke="none" 
	d="
M82.004623,72.680733 
	C76.383659,72.300163 71.765587,70.081131 68.259323,65.327263 
	C75.713951,58.618027 76.789505,53.143013 72.447121,44.598251 
	C71.822418,43.368980 72.168571,41.646324 72.063965,40.130711 
	C75.246536,42.744453 78.006287,45.010948 80.972290,47.916851 
	C82.223907,48.369881 83.269272,48.183498 84.314636,47.997116 
	C83.080490,43.237621 85.034424,39.104710 86.878868,34.950283 
	C92.275177,33.038174 98.219406,36.634357 98.592087,42.669533 
	C94.755058,44.046452 94.972794,45.862713 97.049370,48.102043 
	C98.759987,48.200783 100.470604,48.299519 102.938911,48.441990 
	C102.938911,49.398193 102.938911,50.752518 102.938911,52.106842 
	C98.631271,51.884090 99.880989,55.976707 98.351967,57.901890 
	C93.805214,63.626659 89.587090,69.808975 82.004623,72.680733 
M88.584770,48.451286 
	C89.482407,48.580002 90.380043,48.708721 91.277672,48.837437 
	C91.285179,48.609497 91.292694,48.381554 91.300201,48.153614 
	C90.501251,48.153614 89.702301,48.153614 88.584770,48.451286 
M86.500412,50.998421 
	C86.318466,50.859936 86.136520,50.721451 85.954575,50.582970 
	C86.070511,50.779846 86.186455,50.976723 86.500412,50.998421 
z"/>
<path fill="#01AAED" opacity="1.000000" stroke="none" 
	d="
M116.959526,124.118622 
	C116.534576,124.083023 116.109634,124.047417 115.176193,123.774063 
	C113.448471,123.020645 112.229240,122.504990 110.984802,121.830376 
	C110.802917,121.547310 110.646240,121.423187 110.489555,121.299072 
	C110.656601,121.534592 110.823647,121.770111 110.970078,122.378021 
	C110.646828,124.206772 110.344200,125.663132 110.041565,127.119492 
	C102.004700,124.549530 97.597862,117.518402 91.405464,111.721329 
	C92.722267,106.813141 94.394615,102.428329 96.036133,98.025223 
	C96.005318,98.006927 96.044739,98.066803 96.293564,97.942535 
	C97.291428,97.289078 98.040482,96.759888 98.789528,96.230705 
	C101.719551,97.822243 104.546021,100.472145 107.602501,100.771210 
	C112.938126,101.293282 118.415283,100.368690 124.946426,99.984978 
	C122.539154,101.545059 120.656532,102.765121 118.122879,103.829468 
	C115.640152,103.482918 113.808456,103.292084 111.976753,103.101257 
	C111.929123,103.426476 111.881493,103.751694 111.833862,104.076912 
	C112.670357,104.361855 113.506844,104.646805 114.514122,104.989937 
	C112.977600,108.175117 111.497269,111.243828 110.538582,113.231163 
	C111.732094,115.927170 112.296242,117.667709 113.227432,119.182632 
	C114.302574,120.931778 115.701302,122.482018 116.959526,124.118622 
M107.870514,103.486946 
	C107.870514,103.486946 108.101814,103.565674 108.101814,103.565674 
	C108.101814,103.565674 107.955940,103.390335 107.870514,103.486946 
z"/>
<path fill="#6878FF" opacity="1.000000" stroke="none" 
	d="
M95.957863,75.886421 
	C97.196365,70.290161 103.189171,69.787941 106.776619,66.501404 
	C109.156570,68.523460 111.077980,70.261276 112.999695,71.999542 
	C113.000000,72.000000 113.000900,72.000999 112.991234,72.374969 
	C110.872833,76.685852 108.672417,80.625175 114.757446,84.626549 
	C111.074341,86.079781 108.610390,87.251305 106.027969,88.029930 
	C100.439346,89.714966 96.487022,93.562515 96.044739,98.066803 
	C96.044739,98.066803 96.005318,98.006927 95.665565,98.037918 
	C93.379562,100.431862 90.922134,102.548187 89.629852,105.226669 
	C88.320175,107.941246 87.097847,109.219208 84.092346,107.778419 
	C84.017677,107.557159 83.962601,107.093384 83.975403,106.695221 
	C83.979515,105.500458 83.970818,104.703857 83.989876,103.675224 
	C84.017632,103.443192 84.167030,103.000336 84.485153,102.872223 
	C88.522682,93.955994 92.242905,85.168228 95.953995,76.376602 
	C96.012726,76.237457 95.959068,76.050865 95.957863,75.886421 
z"/>
<path fill="#01A9EE" opacity="1.000000" stroke="none" 
	d="
M117.106415,124.440544 
	C115.701302,122.482018 114.302574,120.931778 113.227432,119.182632 
	C112.296242,117.667709 111.732094,115.927170 110.538582,113.231163 
	C111.497269,111.243828 112.977600,108.175117 114.514122,104.989937 
	C113.506844,104.646805 112.670357,104.361855 111.833862,104.076912 
	C111.881493,103.751694 111.929123,103.426476 111.976753,103.101257 
	C113.808456,103.292084 115.640152,103.482918 117.766083,103.899345 
	C116.884621,106.217972 115.708939,108.310997 114.429955,110.587929 
	C115.587036,110.380272 117.036842,110.303146 118.358917,109.851845 
	C124.858505,107.633171 130.950851,112.193092 131.140839,118.908020 
	C131.251572,122.821823 128.323151,123.930611 126.158546,124.654472 
	C123.477867,125.550911 120.246666,124.801094 117.106415,124.440544 
z"/>
<path fill="#6878FF" opacity="1.000000" stroke="none" 
	d="
M115.052277,67.880157 
	C118.566559,67.670242 122.243393,66.714165 125.554810,67.435501 
	C129.888962,68.379631 131.969940,72.913277 130.781143,76.571655 
	C129.502151,80.507591 125.021606,83.188911 121.027290,82.572205 
	C119.694344,82.366409 118.294670,82.592758 116.463615,82.482880 
	C115.627693,79.911522 115.392021,77.445541 114.818047,75.060989 
	C114.552803,73.959038 113.627136,73.016060 113.000900,72.000999 
	C113.000900,72.000999 113.000000,72.000000 113.142937,71.704201 
	C113.874680,70.232323 114.463478,69.056244 115.052277,67.880157 
z"/>
<path fill="#6878FF" opacity="1.000000" stroke="none" 
	d="
M84.024086,141.980103 
	C87.688721,141.339462 91.104042,140.282303 94.734528,142.820023 
	C97.798065,144.961426 99.719574,147.426086 98.820969,150.854263 
	C97.900688,154.365143 95.871872,157.705566 91.279144,156.944382 
	C88.548126,156.491760 85.907928,155.491150 83.300156,154.060638 
	C83.582169,150.589767 83.790932,147.795181 83.995850,144.643494 
	C83.950829,143.576553 83.909653,142.866745 83.868477,142.156937 
	C83.868477,142.156937 83.972832,142.039597 84.024086,141.980103 
z"/>
<path fill="#01A9EE" opacity="1.000000" stroke="none" 
	d="
M218.072159,66.041748 
	C218.041702,116.204903 218.011215,166.368057 217.980927,216.531204 
	C217.979843,218.334656 217.980789,220.138107 217.006195,221.939255 
	C217.006195,170.283127 217.006195,118.626999 217.253143,66.501556 
	C217.690765,66.035408 217.881470,66.038574 218.072159,66.041748 
z"/>
<path fill="#6879FF" opacity="1.000000" stroke="none" 
	d="
M112.991234,72.374969 
	C113.627136,73.016060 114.552803,73.959038 114.818047,75.060989 
	C115.392021,77.445541 115.627693,79.911522 116.147583,82.654861 
	C118.737442,85.857658 121.181442,88.749794 124.008194,92.094864 
	C119.247681,90.971054 115.090775,89.989731 110.327271,89.133926 
	C109.458458,89.422447 109.222984,89.617683 109.014236,89.845154 
	C105.695816,91.729530 102.377388,93.613907 98.924240,95.864494 
	C98.040482,96.759888 97.291428,97.289078 96.293564,97.942535 
	C96.487022,93.562515 100.439346,89.714966 106.027969,88.029930 
	C108.610390,87.251305 111.074341,86.079781 114.757446,84.626549 
	C108.672417,80.625175 110.872833,76.685852 112.991234,72.374969 
z"/>
<path fill="#01B2F9" opacity="1.000000" stroke="none" 
	d="
M218.296219,66.025208 
	C217.881470,66.038574 217.690765,66.035408 217.214172,66.036942 
	C209.781631,66.019661 202.633270,65.898285 195.489166,66.022331 
	C192.432327,66.075417 190.876724,65.325935 190.966751,61.868587 
	C191.187241,53.399658 191.125580,44.923378 191.533356,36.203270 
	C192.261322,41.693180 192.837738,47.425404 192.963394,53.167492 
	C193.233246,65.498642 191.544312,63.864670 203.970810,63.988125 
	C207.963074,64.027794 211.960358,63.894779 215.945816,64.064293 
	C217.004181,64.109306 218.027298,64.982849 219.014206,65.784050 
	C218.961807,66.092117 218.520279,66.008667 218.296219,66.025208 
z"/>
<path fill="#6879FF" opacity="1.000000" stroke="none" 
	d="
M84.167007,107.999680 
	C87.097847,109.219208 88.320175,107.941246 89.629852,105.226669 
	C90.922134,102.548187 93.379562,100.431862 95.696381,98.056213 
	C94.394615,102.428329 92.722267,106.813141 91.102798,111.593498 
	C89.729958,114.653084 88.304245,117.317123 86.499405,120.014366 
	C85.913506,120.032005 85.706749,120.016441 85.240356,119.546326 
	C84.709480,115.394409 84.438240,111.697044 84.167007,107.999680 
z"/>
<path fill="#6879FF" opacity="1.000000" stroke="none" 
	d="
M95.663071,76.008194 
	C95.959068,76.050865 96.012726,76.237457 95.953995,76.376602 
	C92.242905,85.168228 88.522682,93.955994 84.412971,102.445419 
	C83.388870,93.624229 88.829865,87.287178 91.948799,80.114746 
	C92.189491,79.233040 92.430191,78.351341 92.894104,77.204704 
	C93.867653,76.669846 94.617966,76.399910 95.663071,76.008194 
z"/>
<path fill="#007FFE" opacity="1.000000" stroke="none" 
	d="
M40.121605,156.463989 
	C40.681694,156.166000 41.150398,156.328125 41.802574,156.661392 
	C41.657658,158.524597 41.050014,160.215622 41.043739,161.908875 
	C40.975262,180.376846 41.000866,198.845154 41.000862,217.313370 
	C41.000862,218.932632 41.000858,220.551880 41.000858,222.171143 
	C40.677315,222.170853 40.353771,222.170578 40.030228,222.170303 
	C40.030228,200.421555 40.030228,178.672821 40.121605,156.463989 
z"/>
<path fill="#6879FF" opacity="1.000000" stroke="none" 
	d="
M115.028900,67.486710 
	C114.463478,69.056244 113.874680,70.232323 113.142632,71.703743 
	C111.077980,70.261276 109.156570,68.523460 107.118149,66.476196 
	C109.746895,64.355011 112.492668,62.543270 116.321304,60.017021 
	C115.727409,63.211014 115.366470,65.152138 115.028900,67.486710 
z"/>
<path fill="#01A6E9" opacity="1.000000" stroke="none" 
	d="
M86.530716,34.969124 
	C85.034424,39.104710 83.080490,43.237621 84.314636,47.997116 
	C83.269272,48.183498 82.223907,48.369881 81.131104,48.286240 
	C81.054916,46.856873 81.197052,45.662479 80.967682,44.544289 
	C80.004074,39.846634 82.462097,37.089798 86.530716,34.969124 
z"/>
<path fill="#01A9EE" opacity="1.000000" stroke="none" 
	d="
M111.010002,121.989326 
	C112.229240,122.504990 113.448471,123.020645 114.858932,123.822067 
	C115.348938,125.953560 115.647720,127.799294 116.077065,130.451553 
	C113.870438,129.130234 112.300797,128.190323 110.386353,127.184959 
	C110.344200,125.663132 110.646828,124.206772 110.975037,122.374878 
	C111.000618,121.999352 111.010002,121.989326 111.010002,121.989326 
z"/>
<path fill="#01B2F9" opacity="1.000000" stroke="none" 
	d="
M188.980881,43.183243 
	C188.980881,40.761696 188.980881,38.811970 188.980881,36.862247 
	C189.227951,36.867401 189.475006,36.872559 189.722076,36.877716 
	C189.722076,45.972942 189.722076,55.068172 189.722076,64.163406 
	C189.475006,64.169060 189.227951,64.174713 188.980881,64.180367 
	C188.980881,57.338600 188.980881,50.496834 188.980881,43.183243 
z"/>
<path fill="#6878FE" opacity="1.000000" stroke="none" 
	d="
M83.999695,145.000610 
	C83.790932,147.795181 83.582169,150.589767 83.139206,153.713287 
	C82.276352,151.630142 81.647697,149.218048 81.357918,146.256271 
	C82.464424,145.471252 83.232056,145.235931 83.999695,145.000610 
z"/>
<path fill="#01A6E9" opacity="1.000000" stroke="none" 
	d="
M97.383041,47.932861 
	C94.972794,45.862713 94.755058,44.046452 98.525833,43.029671 
	C98.475838,44.585484 98.096275,46.174583 97.383041,47.932861 
z"/>
<path fill="#6879FF" opacity="1.000000" stroke="none" 
	d="
M83.995850,144.643494 
	C83.232056,145.235931 82.464424,145.471252 81.425064,145.840759 
	C81.153351,145.974930 81.000687,145.561707 80.970963,145.343353 
	C81.703773,144.164001 82.466309,143.203018 83.548660,142.199493 
	C83.909653,142.866745 83.950829,143.576553 83.995850,144.643494 
z"/>
<path fill="#6878FF" opacity="1.000000" stroke="none" 
	d="
M109.280853,89.878235 
	C109.222984,89.617683 109.458458,89.422447 109.923813,89.151840 
	C109.933800,89.333260 109.740631,89.622292 109.280853,89.878235 
z"/>
<path fill="#000000" opacity="1.000000" stroke="none" 
	d="
M41.821777,115.000694 
	C41.925133,114.519997 41.958344,114.006668 42.160545,113.571953 
	C42.266434,113.344299 42.668934,113.254616 41.640377,113.836754 
	C46.471291,115.434120 50.338551,116.712845 54.598202,118.072876 
	C50.379917,121.988068 45.769241,125.821945 39.982491,130.633759 
	C39.982491,125.667000 39.982491,121.939384 40.214203,117.610245 
	C40.904533,116.339378 41.363155,115.670036 41.821777,115.000694 
z"/>
<path fill="#000000" opacity="1.000000" stroke="none" 
	d="
M40.798508,62.518597 
	C43.609406,64.559731 46.244274,66.969963 48.830170,70.051575 
	C46.716377,73.175163 50.003380,78.026680 44.998386,79.160767 
	C38.186161,75.176018 39.658447,68.963524 40.798508,62.518597 
z"/>
<path fill="#6779FF" opacity="1.000000" stroke="none" 
	d="
M45.041245,79.470390 
	C50.003380,78.026680 46.716377,73.175163 48.968742,70.362564 
	C49.637070,70.174438 50.117855,70.346695 50.457184,70.881058 
	C51.251877,75.143257 52.188026,79.043358 53.124180,82.943451 
	C51.076256,82.629997 49.028332,82.316536 46.590889,82.001183 
	C45.828949,81.259521 45.456528,80.519768 45.041245,79.470390 
z"/>
<path fill="#6779FF" opacity="1.000000" stroke="none" 
	d="
M44.515869,87.090576 
	C46.306381,91.217575 44.652260,93.906281 40.181957,95.076828 
	C41.378632,92.366226 42.816433,89.836037 44.515869,87.090576 
z"/>
<path fill="#6779FF" opacity="1.000000" stroke="none" 
	d="
M41.398254,115.008720 
	C41.363155,115.670036 40.904533,116.339378 40.167580,117.175354 
	C39.445938,116.845398 39.002625,116.348808 38.489182,115.516846 
	C39.270947,115.126556 40.122841,115.071655 41.398254,115.008720 
z"/>
<path fill="#000000" opacity="1.000000" stroke="none" 
	d="
M56.395168,144.571289 
	C55.772957,144.937943 55.128548,145.329132 54.484138,145.720306 
	C54.341873,145.462448 54.199612,145.204590 54.057346,144.946747 
	C54.635059,144.722702 55.212772,144.498657 56.060440,144.460510 
	C56.330391,144.646393 56.372971,144.595795 56.395168,144.571289 
z"/>
<path fill="#000000" opacity="1.000000" stroke="none" 
	d="
M53.451786,83.123466 
	C52.188026,79.043358 51.251877,75.143257 50.656963,71.043900 
	C56.261940,73.228485 61.325409,76.460403 66.844322,77.763680 
	C72.655540,79.135979 78.904030,78.633675 84.957291,79.016533 
	C87.042824,79.148438 89.115784,79.479225 91.571640,79.916954 
	C88.829865,87.287178 83.388870,93.624229 84.094849,102.573532 
	C84.167030,103.000336 84.017632,103.443192 83.690422,103.829399 
	C83.563011,105.174866 83.762802,106.134125 83.962601,107.093384 
	C83.962601,107.093384 84.017677,107.557159 84.092346,107.778419 
	C84.438240,111.697044 84.709480,115.394409 84.930222,119.523003 
	C78.468010,116.153168 71.928757,112.703926 64.203842,112.606125 
	C60.450745,112.558601 56.696491,112.485527 52.944180,112.533997 
	C50.451542,112.566177 47.961422,112.793060 44.316868,112.997482 
	C46.577278,108.683006 48.139183,105.701767 49.916862,102.042236 
	C50.695690,99.908348 51.258751,98.452766 51.821808,96.997177 
	C52.220490,94.624550 52.619171,92.251930 53.357483,89.344284 
	C53.742638,88.205429 53.788166,87.601601 53.833691,86.997772 
	C53.815590,85.766342 53.797493,84.534912 53.451786,83.123466 
z"/>
<path fill="#6779FF" opacity="1.000000" stroke="none" 
	d="
M51.469917,97.024261 
	C51.258751,98.452766 50.695690,99.908348 49.984253,101.681351 
	C49.013268,101.415588 48.190655,100.832420 47.368038,100.249245 
	C48.618031,99.183273 49.868023,98.117310 51.469917,97.024261 
z"/>
<path fill="#6779FF" opacity="1.000000" stroke="none" 
	d="
M53.549225,87.020950 
	C53.788166,87.601601 53.742638,88.205429 53.408733,88.934723 
	C52.691395,88.692390 52.262436,88.324600 51.833473,87.956810 
	C52.310570,87.652588 52.787663,87.348358 53.549225,87.020950 
z"/>
<path fill="#01A6E9" opacity="1.000000" stroke="none" 
	d="
M88.744064,48.302452 
	C89.702301,48.153614 90.501251,48.153614 91.300201,48.153614 
	C91.292694,48.381554 91.285179,48.609497 91.277672,48.837437 
	C90.380043,48.708721 89.482407,48.580002 88.744064,48.302452 
z"/>
<path fill="#01A6E9" opacity="1.000000" stroke="none" 
	d="
M86.401398,51.086010 
	C86.186455,50.976723 86.070511,50.779846 85.954575,50.582970 
	C86.136520,50.721451 86.318466,50.859936 86.401398,51.086010 
z"/>
<path fill="#01A9EE" opacity="1.000000" stroke="none" 
	d="
M110.995651,122.002487 
	C110.823647,121.770111 110.656601,121.534592 110.489555,121.299072 
	C110.646240,121.423187 110.802917,121.547310 110.984802,121.830376 
	C111.010002,121.989326 111.000618,121.999352 110.995651,122.002487 
z"/>
<path fill="#01A9EE" opacity="1.000000" stroke="none" 
	d="
M107.913223,103.438644 
	C107.955940,103.390335 108.101814,103.565674 108.101814,103.565674 
	C108.101814,103.565674 107.870514,103.486946 107.913223,103.438644 
z"/>
<path fill="#6878FE" opacity="1.000000" stroke="none" 
	d="
M83.975403,106.695221 
	C83.762802,106.134125 83.563011,105.174866 83.662666,104.061432 
	C83.970818,104.703857 83.979515,105.500458 83.975403,106.695221 
z"/>
</svg>